HIERARCHY
ROOT Character1_Hips
{
	OFFSET 0.000000 86.858185 1.182688
	CHANNELS 6 Xposition Yposition Zposition Xrotation Yrotation Zrotation
	JOINT Character1_LeftUpLeg
	{
		OFFSET 7.276832 -6.057800 0.207883
		CHANNELS 6 Xposition Yposition Zposition Xrotation Yrotation Zrotation
		JOINT Character1_LeftLeg
		{
			OFFSET -1.823140 -35.110466 -1.568847
			CHANNELS 6 Xposition Yposition Zposition Xrotation Yrotation Zrotation
			JOINT Character1_LeftFoot
			{
				OFFSET -1.031196 -37.817070 -1.726818
				CHANNELS 6 Xposition Yposition Zposition Xrotation Yrotation Zrotation
				JOINT Character1_LeftToeBase
				{
					OFFSET 0.202457 -5.287532 8.122427
					CHANNELS 6 Xposition Yposition Zposition Xrotation Yrotation Zrotation
					End Site
					{
						OFFSET 0.009223 0.000047 9.693953
					}
				}
			}
		}
	}
	JOINT Character1_RightUpLeg
	{
		OFFSET -7.276832 -6.057770 0.207879
		CHANNELS 6 Xposition Yposition Zposition Xrotation Yrotation Zrotation
		JOINT Character1_RightLeg
		{
			OFFSET 1.823196 -35.109627 -1.587624
			CHANNELS 6 Xposition Yposition Zposition Xrotation Yrotation Zrotation
			JOINT Character1_RightFoot
			{
				OFFSET 1.031267 -37.817833 -1.710079
				CHANNELS 6 Xposition Yposition Zposition Xrotation Yrotation Zrotation
				JOINT Character1_RightToeBase
				{
					OFFSET -0.202449 -5.287759 8.122276
					CHANNELS 6 Xposition Yposition Zposition Xrotation Yrotation Zrotation
					End Site
					{
						OFFSET 0.001154 -0.000006 9.693956
					}
				}
			}
		}
	}
	JOINT Character1_Spine
	{
		OFFSET -0.000001 2.271347 0.818150
		CHANNELS 6 Xposition Yposition Zposition Xrotation Yrotation Zrotation
		JOINT Character1_Spine1
		{
			OFFSET -0.000001 9.085945 0.955446
			CHANNELS 6 Xposition Yposition Zposition Xrotation Yrotation Zrotation
			JOINT Character1_Spine2
			{
				OFFSET -0.000002 8.765564 -0.142866
				CHANNELS 6 Xposition Yposition Zposition Xrotation Yrotation Zrotation
				JOINT Character1_LeftShoulder
				{
					OFFSET 4.211487 11.612236 -3.873799
					CHANNELS 6 Xposition Yposition Zposition Xrotation Yrotation Zrotation
					JOINT Character1_LeftArm
					{
						OFFSET 5.543700 0.000031 -0.000005
						CHANNELS 6 Xposition Yposition Zposition Xrotation Yrotation Zrotation
						JOINT Character1_LeftForeArm
						{
							OFFSET 23.377409 -0.123474 0.033367
							CHANNELS 6 Xposition Yposition Zposition Xrotation Yrotation Zrotation
							JOINT Character1_LeftHand
							{
								OFFSET 16.247719 -0.118858 0.035829
								CHANNELS 6 Xposition Yposition Zposition Xrotation Yrotation Zrotation
								JOINT Character1_LeftHandThumb1
								{
									OFFSET 2.510399 -0.904045 2.091601
									CHANNELS 6 Xposition Yposition Zposition Xrotation Yrotation Zrotation
									JOINT Character1_LeftHandThumb2
									{
										OFFSET 2.570465 -1.130470 1.584520
										CHANNELS 6 Xposition Yposition Zposition Xrotation Yrotation Zrotation
										JOINT Character1_LeftHandThumb3
										{
											OFFSET 1.420841 -0.605858 0.842600
											CHANNELS 6 Xposition Yposition Zposition Xrotation Yrotation Zrotation
											JOINT Character1_LeftHandThumb4
											{
												OFFSET 2.153469 -0.757797 1.312965
												CHANNELS 6 Xposition Yposition Zposition Xrotation Yrotation Zrotation
												End Site
												{
													OFFSET 2.158772 -0.733734 1.317914
												}
											}
										}
									}
								}
								JOINT Character1_LeftHandIndex1
								{
									OFFSET 8.043888 0.989311 2.480770
									CHANNELS 6 Xposition Yposition Zposition Xrotation Yrotation Zrotation
									JOINT Character1_LeftHandIndex2
									{
										OFFSET 2.427021 0.011856 0.268371
										CHANNELS 6 Xposition Yposition Zposition Xrotation Yrotation Zrotation
										JOINT Character1_LeftHandIndex3
										{
											OFFSET 1.609932 0.007866 0.037315
											CHANNELS 6 Xposition Yposition Zposition Xrotation Yrotation Zrotation
											JOINT Character1_LeftHandIndex4
											{
												OFFSET 2.130016 0.049431 0.114431
												CHANNELS 6 Xposition Yposition Zposition Xrotation Yrotation Zrotation
												End Site
												{
													OFFSET 2.119099 0.211617 -0.131005
												}
											}
										}
									}
								}
								JOINT Character1_LeftHandMiddle1
								{
									OFFSET 8.038177 1.007423 0.439338
									CHANNELS 6 Xposition Yposition Zposition Xrotation Yrotation Zrotation
									JOINT Character1_LeftHandMiddle2
									{
										OFFSET 2.527046 -0.234444 -0.080977
										CHANNELS 6 Xposition Yposition Zposition Xrotation Yrotation Zrotation
										JOINT Character1_LeftHandMiddle3
										{
											OFFSET 1.931313 -0.179352 -0.117768
											CHANNELS 6 Xposition Yposition Zposition Xrotation Yrotation Zrotation
											JOINT Character1_LeftHandMiddle4
											{
												OFFSET 2.196999 0.041229 -0.161456
												CHANNELS 6 Xposition Yposition Zposition Xrotation Yrotation Zrotation
												End Site
												{
													OFFSET 2.197571 -0.071640 -0.141814
												}
											}
										}
									}
								}
								JOINT Character1_LeftHandRing1
								{
									OFFSET 7.662090 0.616508 -1.366725
									CHANNELS 6 Xposition Yposition Zposition Xrotation Yrotation Zrotation
									JOINT Character1_LeftHandRing2
									{
										OFFSET 2.249855 -0.592636 -0.461933
										CHANNELS 6 Xposition Yposition Zposition Xrotation Yrotation Zrotation
										JOINT Character1_LeftHandRing3
										{
											OFFSET 1.521790 -0.400856 -0.248318
											CHANNELS 6 Xposition Yposition Zposition Xrotation Yrotation Zrotation
											JOINT Character1_LeftHandRing4
											{
												OFFSET 2.446365 -0.396080 -0.528466
												CHANNELS 6 Xposition Yposition Zposition Xrotation Yrotation Zrotation
												End Site
												{
													OFFSET 2.437840 -0.527443 -0.446790
												}
											}
										}
									}
								}
								JOINT Character1_LeftHandPinky1
								{
									OFFSET 6.585136 -0.139000 -2.766160
									CHANNELS 6 Xposition Yposition Zposition Xrotation Yrotation Zrotation
									JOINT Character1_LeftHandPinky2
									{
										OFFSET 1.631428 -0.600632 -0.502815
										CHANNELS 6 Xposition Yposition Zposition Xrotation Yrotation Zrotation
										JOINT Character1_LeftHandPinky3
										{
											OFFSET 1.227242 -0.468956 -0.457904
											CHANNELS 6 Xposition Yposition Zposition Xrotation Yrotation Zrotation
											JOINT Character1_LeftHandPinky4
											{
												OFFSET 1.696033 -0.584229 -0.687828
												CHANNELS 6 Xposition Yposition Zposition Xrotation Yrotation Zrotation
												End Site
												{
													OFFSET 1.705387 -0.567787 -0.678411
												}
											}
										}
									}
								}
							}
						}
					}
				}
				JOINT Character1_RightShoulder
				{
					OFFSET -4.211487 11.612236 -3.873799
					CHANNELS 6 Xposition Yposition Zposition Xrotation Yrotation Zrotation
					JOINT Character1_RightArm
					{
						OFFSET -5.543744 0.000023 -0.000004
						CHANNELS 6 Xposition Yposition Zposition Xrotation Yrotation Zrotation
						JOINT Character1_RightForeArm
						{
							OFFSET -23.377581 -0.123566 0.033386
							CHANNELS 6 Xposition Yposition Zposition Xrotation Yrotation Zrotation
							JOINT Character1_RightHand
							{
								OFFSET -16.247574 -0.118851 0.036247
								CHANNELS 6 Xposition Yposition Zposition Xrotation Yrotation Zrotation
								JOINT Character1_RightHandThumb1
								{
									OFFSET -2.510384 -0.904091 2.091566
									CHANNELS 6 Xposition Yposition Zposition Xrotation Yrotation Zrotation
									JOINT Character1_RightHandThumb2
									{
										OFFSET -2.579426 -1.121681 1.537416
										CHANNELS 6 Xposition Yposition Zposition Xrotation Yrotation Zrotation
										JOINT Character1_RightHandThumb3
										{
											OFFSET -1.429546 -0.616760 0.819528
											CHANNELS 6 Xposition Yposition Zposition Xrotation Yrotation Zrotation
											JOINT Character1_RightHandThumb4
											{
												OFFSET -2.167622 -0.774658 1.279505
												CHANNELS 6 Xposition Yposition Zposition Xrotation Yrotation Zrotation
												End Site
												{
													OFFSET -2.137974 -0.606712 1.413074
												}
											}
										}
									}
								}
								JOINT Character1_RightHandIndex1
								{
									OFFSET -8.043800 0.988876 2.481294
									CHANNELS 6 Xposition Yposition Zposition Xrotation Yrotation Zrotation
									JOINT Character1_RightHandIndex2
									{
										OFFSET -2.426987 0.011948 0.268470
										CHANNELS 6 Xposition Yposition Zposition Xrotation Yrotation Zrotation
										JOINT Character1_RightHandIndex3
										{
											OFFSET -1.609989 0.007927 0.037374
											CHANNELS 6 Xposition Yposition Zposition Xrotation Yrotation Zrotation
											JOINT Character1_RightHandIndex4
											{
												OFFSET -2.129982 0.049034 0.114512
												CHANNELS 6 Xposition Yposition Zposition Xrotation Yrotation Zrotation
												End Site
												{
													OFFSET -2.123772 0.204735 0.006035
												}
											}
										}
									}
								}
								JOINT Character1_RightHandMiddle1
								{
									OFFSET -8.038174 1.006859 0.439860
									CHANNELS 6 Xposition Yposition Zposition Xrotation Yrotation Zrotation
									JOINT Character1_RightHandMiddle2
									{
										OFFSET -2.526997 -0.234062 -0.080875
										CHANNELS 6 Xposition Yposition Zposition Xrotation Yrotation Zrotation
										JOINT Character1_RightHandMiddle3
										{
											OFFSET -1.931465 -0.179070 -0.117694
											CHANNELS 6 Xposition Yposition Zposition Xrotation Yrotation Zrotation
											JOINT Character1_RightHandMiddle4
											{
												OFFSET -2.196987 0.042816 -0.161370
												CHANNELS 6 Xposition Yposition Zposition Xrotation Yrotation Zrotation
												End Site
												{
													OFFSET -2.184029 -0.187660 -0.222307
												}
											}
										}
									}
								}
								JOINT Character1_RightHandRing1
								{
									OFFSET -7.662136 0.615837 -1.366219
									CHANNELS 6 Xposition Yposition Zposition Xrotation Yrotation Zrotation
									JOINT Character1_RightHandRing2
									{
										OFFSET -2.249901 -0.592049 -0.461829
										CHANNELS 6 Xposition Yposition Zposition Xrotation Yrotation Zrotation
										JOINT Character1_RightHandRing3
										{
											OFFSET -1.521889 -0.400475 -0.248259
											CHANNELS 6 Xposition Yposition Zposition Xrotation Yrotation Zrotation
											JOINT Character1_RightHandRing4
											{
												OFFSET -2.446423 -0.395401 -0.528361
												CHANNELS 6 Xposition Yposition Zposition Xrotation Yrotation Zrotation
												End Site
												{
													OFFSET -2.430859 -0.503899 -0.507441
												}
											}
										}
									}
								}
								JOINT Character1_RightHandPinky1
								{
									OFFSET -6.585262 -0.139153 -2.765680
									CHANNELS 6 Xposition Yposition Zposition Xrotation Yrotation Zrotation
									JOINT Character1_RightHandPinky2
									{
										OFFSET -1.631413 -0.601036 -0.502742
										CHANNELS 6 Xposition Yposition Zposition Xrotation Yrotation Zrotation
										JOINT Character1_RightHandPinky3
										{
											OFFSET -1.227207 -0.469040 -0.457860
											CHANNELS 6 Xposition Yposition Zposition Xrotation Yrotation Zrotation
											JOINT Character1_RightHandPinky4
											{
												OFFSET -1.696110 -0.584045 -0.687750
												CHANNELS 6 Xposition Yposition Zposition Xrotation Yrotation Zrotation
												End Site
												{
													OFFSET -1.689350 -0.584435 -0.703875
												}
											}
										}
									}
								}
							}
						}
					}
				}
				JOINT Character1_Neck
				{
					OFFSET -0.000001 15.167763 -4.080687
					CHANNELS 6 Xposition Yposition Zposition Xrotation Yrotation Zrotation
					JOINT Character1_Head
					{
						OFFSET -0.000001 7.825302 -0.202157
						CHANNELS 6 Xposition Yposition Zposition Xrotation Yrotation Zrotation
						End Site
						{
							OFFSET -0.242856 15.320236 -2.107584
						}
					}
				}
				JOINT J_R_Mune_00
				{
					OFFSET -2.925001 2.684891 0.061887
					CHANNELS 6 Xposition Yposition Zposition Xrotation Yrotation Zrotation
					JOINT J_R_Mune_01
					{
						OFFSET -7.794388 2.801010 16.635391
						CHANNELS 6 Xposition Yposition Zposition Xrotation Yrotation Zrotation
						JOINT J_R_Mune_02
						{
							OFFSET 6.838630 -2.377007 -14.605499
							CHANNELS 6 Xposition Yposition Zposition Xrotation Yrotation Zrotation
							End Site
							{
								OFFSET -14.795670 -0.834061 -6.791919
							}
						}
					}
				}
				JOINT J_L_Mune_00
				{
					OFFSET 2.925019 2.684776 0.061883
					CHANNELS 6 Xposition Yposition Zposition Xrotation Yrotation Zrotation
					JOINT J_L_Mune_01
					{
						OFFSET 7.794374 2.801254 16.635433
						CHANNELS 6 Xposition Yposition Zposition Xrotation Yrotation Zrotation
						JOINT J_L_Mune_02
						{
							OFFSET -6.838619 -2.376648 -14.605538
							CHANNELS 3 Xrotation Yrotation Zrotation
							End Site
							{
								OFFSET 14.795649 -0.834076 -6.791907
							}
						}
					}
				}
			}
		}
	}
}
MOTION
Frames: 3
Frame Time: 0.033333
-0.476005 85.911011 0.500658 -0.276488 1.917867 0.443213 7.276833 -6.057811 0.207884 -8.732708 -3.539474 -0.198551 -1.823139 -35.110462 -1.568849 17.465166 -3.140648 -1.073751 -1.031196 -37.817074 -1.726820 -6.498696 -0.041121 2.133328 0.202457 -5.287532 8.122426 0.000015 0.000195 -0.000747 -7.276831 -6.057784 0.207878 -14.624635 -1.152204 2.458671 1.823196 -35.109619 -1.587617 71.071096 -3.150392 -0.338548 1.031268 -37.817833 -1.710072 38.936706 -0.890729 -6.510001 -0.202449 -5.287755 8.122273 -0.000001 -0.000231 -0.000463 -0.000001 2.271323 0.818149 -1.537381 -2.585146 -0.634841 -0.000001 9.085953 0.955445 -1.430139 -0.766466 0.251193 -0.000002 8.765550 -0.142869 12.896306 -0.461423 -0.111604 4.211488 11.612240 -3.873801 0.307640 7.129618 -2.476792 5.543701 0.000029 -0.000006 4.344466 -20.667744 -70.463981 23.377415 -0.123472 0.033366 -9.171235 -23.047696 1.148736 16.247732 -0.118850 0.035828 -3.558535 -0.130613 -13.430147 2.510388 -0.904055 2.091604 -2.573720 -1.715563 7.431652 2.570465 -1.130472 1.584527 4.641616 14.920198 2.293249 1.420833 -0.605851 0.842591 5.373960 23.291661 2.709256 2.153472 -0.757809 1.312961 -0.000613 0.001007 -0.006262 8.043876 0.989314 2.480770 13.275697 17.927201 -2.245458 2.427028 0.011859 0.268370 0.526455 -0.078586 -23.106723 1.609934 0.007872 0.037314 2.445447 0.987245 -32.459320 2.130026 0.049423 0.114432 -0.003426 -0.004171 -0.000814 8.038159 1.007426 0.439338 9.079826 3.497272 -8.471537 2.527060 -0.234449 -0.080974 -1.113879 0.251933 -19.590224 1.931305 -0.179324 -0.117770 -1.040037 1.110394 -28.296832 2.196995 0.041231 -0.161458 -0.003229 -0.003974 0.001120 7.662082 0.616512 -1.366728 8.582590 -13.463466 -1.288048 2.249857 -0.592629 -0.461929 0.856463 0.716326 -17.207697 1.521785 -0.400858 -0.248309 -14.947545 6.934829 -62.333065 2.446368 -0.396069 -0.528466 -0.003748 -0.001483 0.000998 6.585134 -0.138990 -2.766165 -18.326366 -22.823736 -3.301968 1.631429 -0.600628 -0.502831 -6.099250 3.680854 -20.369067 1.227242 -0.468949 -0.457906 -12.723247 16.638510 -56.922916 1.696027 -0.584235 -0.687833 -0.000744 -0.000057 -0.000219 -4.211488 11.612239 -3.873802 0.000166 0.000223 -0.000000 -5.543743 0.000014 -0.000005 3.114364 8.587249 75.233004 -23.377590 -0.123560 0.033378 -20.749411 18.879070 3.616631 -16.247572 -0.118853 0.036249 16.201079 1.678301 5.699418 -2.510396 -0.904101 2.091566 -7.054968 -0.039461 -13.731912 -2.579430 -1.121674 1.537415 6.117543 -19.520880 -2.672759 -1.429540 -0.616756 0.819532 7.326677 -30.565134 -3.014732 -2.167623 -0.774657 1.279511 0.009815 0.003636 -0.006260 -8.043814 0.988872 2.481292 10.906639 -6.477843 15.169215 -2.427002 0.011948 0.268470 -0.069717 0.006583 22.352832 -1.610002 0.007920 0.037374 2.135460 -1.614683 28.337068 -2.129980 0.049030 0.114510 -0.000762 -0.008012 0.004753 -8.038187 1.006879 0.439862 -5.543396 2.839289 16.905446 -2.527004 -0.234062 -0.080878 -0.156169 -0.034301 20.891617 -1.931465 -0.179072 -0.117693 -0.278875 -0.643933 29.536217 -2.196984 0.042818 -0.161369 -0.000837 -0.002700 -0.003849 -7.662142 0.615836 -1.366219 -4.304329 18.976270 6.572899 -2.249889 -0.592033 -0.461834 1.394483 0.144711 14.312948 -1.521883 -0.400467 -0.248249 -4.706010 -1.931617 45.518419 -2.446432 -0.395386 -0.528365 0.004991 0.001408 0.007098 -6.585268 -0.139152 -2.765688 -23.276183 19.668515 -8.757637 -1.631423 -0.601032 -0.502746 -4.429390 -2.364757 14.358647 -1.227200 -0.469037 -0.457859 -9.658320 -11.694360 40.494552 -1.696108 -0.584050 -0.687751 0.004086 0.003776 -0.005361 -0.000001 15.167769 -4.080689 -1.736102 -0.512847 0.611135 -0.000000 7.825318 -0.202159 -1.569734 -0.287275 0.559187 -2.925001 2.684891 0.061882 0.000001 0.000002 -0.000000 -7.794385 2.800995 16.635389 -0.000000 0.000001 0.000000 6.838629 -2.377014 -14.605499 -0.000000 0.000000 0.000000 2.925019 2.684792 0.061877 0.000001 0.000000 0.000000 7.794374 2.801254 16.635426 0.000000 -0.000000 -0.000000 0.000001 0.000000 -0.000000 
-0.475995 86.125572 0.563675 -0.276502 1.917869 0.443217 7.276833 -6.057809 0.207883 -5.690278 -3.617806 -0.047401 -1.823140 -35.110470 -1.568850 15.388683 -3.029363 -1.129843 -1.031196 -37.817070 -1.726821 -6.183974 -0.055780 2.252549 0.202457 -5.287532 8.122426 0.000021 0.000255 -0.000709 -7.276832 -6.057776 0.207882 -18.983022 -1.315129 2.403735 1.823196 -35.109627 -1.587614 72.016907 -2.466336 -0.579881 1.031268 -37.817837 -1.710072 35.923172 -0.685174 -6.106546 -0.202449 -5.287757 8.122277 0.000119 -0.000214 -0.000486 -0.000001 2.271333 0.818149 -1.398290 -2.586366 -0.628455 -0.000001 9.085942 0.955445 -1.430087 -0.766496 0.251228 -0.000002 8.765570 -0.142871 12.678557 -0.460870 -0.113442 4.211489 11.612234 -3.873797 0.307616 7.129588 -2.476760 5.543698 0.000039 -0.000005 3.253900 -21.467740 -70.248967 23.377415 -0.123468 0.033372 -9.656072 -23.337787 1.101631 16.247723 -0.118850 0.035826 -3.574512 -0.130278 -13.430537 2.510396 -0.904052 2.091603 -2.573757 -1.715602 7.431720 2.570462 -1.130485 1.584518 4.641651 14.920173 2.293286 1.420840 -0.605854 0.842596 5.373931 23.291715 2.709249 2.153461 -0.757807 1.312958 -0.000595 0.000980 -0.006241 8.043894 0.989311 2.480769 13.275578 17.927128 -2.245394 2.427025 0.011850 0.268370 0.526501 -0.078573 -23.106820 1.609931 0.007857 0.037314 2.445437 0.987266 -32.459269 2.130021 0.049431 0.114429 -0.003441 -0.004216 -0.000851 8.038170 1.007436 0.439340 9.079814 3.497231 -8.471566 2.527063 -0.234449 -0.080977 -1.113901 0.251954 -19.590135 1.931313 -0.179345 -0.117772 -1.040031 1.110350 -28.296907 2.197010 0.041226 -0.161455 -0.003237 -0.003962 0.001116 7.662087 0.616503 -1.366727 8.582578 -13.463485 -1.287980 2.249876 -0.592639 -0.461936 0.856490 0.716332 -17.207647 1.521786 -0.400855 -0.248316 -14.947565 6.934848 -62.333044 2.446371 -0.396073 -0.528468 -0.003717 -0.001467 0.000977 6.585139 -0.138993 -2.766159 -18.326374 -22.823789 -3.301928 1.631428 -0.600635 -0.502830 -6.099250 3.680804 -20.369060 1.227254 -0.468962 -0.457915 -12.723271 16.638530 -56.922906 1.696021 -0.584228 -0.687835 -0.000681 -0.000082 -0.000247 -4.211487 11.612231 -3.873798 0.000163 0.000200 -0.000000 -5.543735 0.000018 -0.000004 4.497657 7.633271 75.298895 -23.377569 -0.123569 0.033385 -19.999735 17.946361 3.276257 -16.247591 -0.118849 0.036251 16.237837 1.331825 5.698327 -2.510385 -0.904093 2.091562 -7.054937 -0.039462 -13.731976 -2.579416 -1.121676 1.537415 6.117593 -19.520886 -2.672734 -1.429540 -0.616756 0.819533 7.326635 -30.565110 -3.014730 -2.167630 -0.774652 1.279517 0.009807 0.003611 -0.006265 -8.043812 0.988875 2.481292 10.906621 -6.477841 15.169186 -2.426996 0.011949 0.268468 -0.069699 0.006550 22.352824 -1.610003 0.007944 0.037375 2.135449 -1.614716 28.337058 -2.129972 0.049037 0.114507 -0.000760 -0.008026 0.004754 -8.038196 1.006868 0.439861 -5.543214 2.839783 16.905365 -2.527006 -0.234061 -0.080876 -0.156438 -0.034749 20.891563 -1.931450 -0.179050 -0.117691 -0.278918 -0.643918 29.536214 -2.196995 0.042822 -0.161371 -0.000753 -0.002330 -0.003832 -7.662140 0.615834 -1.366220 -4.304276 18.976255 6.572842 -2.249886 -0.592043 -0.461830 1.394562 0.145386 14.312869 -1.521887 -0.400476 -0.248252 -4.706467 -1.931961 45.518228 -2.446429 -0.395374 -0.528365 0.004936 0.001051 0.007395 -6.585270 -0.139151 -2.765680 -23.276161 19.668505 -8.757668 -1.631406 -0.601040 -0.502736 -4.429395 -2.364762 14.358586 -1.227207 -0.469029 -0.457853 -9.658308 -11.694319 40.494634 -1.696106 -0.584060 -0.687745 0.004097 0.003772 -0.005351 -0.000001 15.167768 -4.080685 -1.736186 -0.512886 0.611215 -0.000001 7.825305 -0.202158 -1.569655 -0.287238 0.559152 -2.925003 2.684883 0.061887 -0.000000 -0.000002 0.000000 -7.794385 2.800987 16.635389 0.000001 -0.000001 0.000000 6.838628 -2.377014 -14.605495 -0.000002 -0.000002 -0.000000 2.925019 2.684791 0.061881 0.000002 -0.000002 0.000000 7.794373 2.801255 16.635427 -0.000001 -0.000000 0.000000 0.000001 -0.000001 0.000000 
-0.475990 86.404678 0.699120 -0.276504 1.917856 0.443217 7.276833 -6.057802 0.207883 -1.139467 -3.678183 0.228010 -1.823141 -35.110466 -1.568847 10.377871 -2.884900 -1.229969 -1.031196 -37.817070 -1.726822 -4.561859 -0.082314 2.321992 0.202457 -5.287533 8.122425 0.000016 0.000187 -0.000763 -7.276832 -6.057772 0.207883 -23.018465 -1.394508 2.378088 1.823196 -35.109619 -1.587613 71.145648 -1.619308 -0.860031 1.031268 -37.817825 -1.710073 32.345249 -0.450685 -5.557403 -0.202449 -5.287760 8.122280 0.000199 -0.000254 -0.000459 -0.000001 2.271327 0.818149 -1.028684 -2.589755 -0.611619 -0.000001 9.085938 0.955446 -1.430150 -0.766468 0.251216 -0.000002 8.765560 -0.142868 12.100315 -0.459468 -0.117984 4.211487 11.612232 -3.873794 0.307612 7.129599 -2.476780 5.543707 0.000031 -0.000007 1.910425 -22.463027 -70.080944 23.377419 -0.123469 0.033367 -10.216953 -23.183255 1.098568 16.247709 -0.118864 0.035822 -3.590748 -0.130083 -13.430746 2.510403 -0.904047 2.091597 -2.573751 -1.715568 7.431778 2.570468 -1.130472 1.584517 4.641659 14.920171 2.293266 1.420834 -0.605849 0.842586 5.373948 23.291698 2.709193 2.153473 -0.757808 1.312960 -0.000563 0.000983 -0.006285 8.043888 0.989314 2.480768 13.275612 17.927182 -2.245391 2.427032 0.011850 0.268369 0.526483 -0.078580 -23.106827 1.609933 0.007869 0.037316 2.445408 0.987305 -32.459272 2.130027 0.049431 0.114432 -0.003375 -0.004248 -0.000932 8.038169 1.007427 0.439339 9.079821 3.497270 -8.471511 2.527044 -0.234445 -0.080974 -1.113914 0.251986 -19.590174 1.931317 -0.179342 -0.117768 -1.040045 1.110306 -28.296915 2.197005 0.041233 -0.161452 -0.003205 -0.003928 0.001104 7.662084 0.616507 -1.366731 8.582543 -13.463434 -1.288020 2.249865 -0.592636 -0.461934 0.856497 0.716326 -17.207608 1.521792 -0.400855 -0.248308 -14.947498 6.934815 -62.333058 2.446368 -0.396068 -0.528474 -0.003637 -0.001485 0.000970 6.585136 -0.138988 -2.766161 -18.326367 -22.823794 -3.301967 1.631413 -0.600655 -0.502813 -6.099256 3.680863 -20.368973 1.227260 -0.468956 -0.457917 -12.723231 16.638496 -56.922960 1.696025 -0.584238 -0.687835 -0.000744 -0.000062 -0.000220 -4.211487 11.612230 -3.873794 0.000081 0.000218 -0.000000 -5.543740 0.000006 -0.000006 5.935949 6.604650 75.326468 -23.377569 -0.123560 0.033382 -19.201185 16.838617 2.872566 -16.247581 -0.118859 0.036241 16.277608 0.956496 5.697383 -2.510382 -0.904104 2.091565 -7.054945 -0.039455 -13.731901 -2.579426 -1.121666 1.537414 6.117564 -19.520879 -2.672761 -1.429538 -0.616767 0.819538 7.326665 -30.565155 -3.014747 -2.167626 -0.774646 1.279522 0.009792 0.003645 -0.006248 -8.043807 0.988880 2.481295 10.906685 -6.477806 15.169212 -2.426999 0.011941 0.268468 -0.069742 0.007062 22.352667 -1.609990 0.007921 0.037374 2.135010 -1.614553 28.337137 -2.129990 0.049040 0.114510 -0.000826 -0.008704 0.004797 -8.038177 1.006857 0.439861 -5.543177 2.839810 16.905400 -2.526998 -0.234050 -0.080875 -0.156460 -0.034164 20.891469 -1.931460 -0.179090 -0.117691 -0.279364 -0.644054 29.536262 -2.196984 0.042795 -0.161372 -0.000736 -0.002814 -0.003772 -7.662124 0.615828 -1.366216 -4.304284 18.976233 6.572893 -2.249891 -0.592043 -0.461828 1.394576 0.145371 14.312887 -1.521883 -0.400479 -0.248247 -4.706450 -1.931903 45.518218 -2.446422 -0.395395 -0.528366 0.004902 0.001014 0.007373 -6.585258 -0.139156 -2.765679 -23.276168 19.668493 -8.757576 -1.631415 -0.601043 -0.502735 -4.429411 -2.364765 14.358673 -1.227210 -0.469047 -0.457856 -9.658298 -11.694329 40.494586 -1.696104 -0.584047 -0.687744 0.004135 0.003790 -0.005356 -0.000001 15.167750 -4.080682 -1.736293 -0.512853 0.611157 -0.000000 7.825292 -0.202161 -1.569546 -0.287262 0.559165 -2.925002 2.684868 0.061892 0.000000 -0.000002 0.000000 -7.794386 2.800994 16.635387 0.000001 0.000001 0.000000 6.838629 -2.376999 -14.605501 -0.000000 0.000000 -0.000001 2.925018 2.684776 0.061885 0.000001 -0.000002 0.000000 7.794374 2.801270 16.635429 -0.000001 -0.000000 0.000000 -0.000000 0.000000 -0.000000 
